<svg width="38" height="39" viewBox="0 0 38 39" fill="none" xmlns="http://www.w3.org/2000/svg">
<g clip-path="url(#clip0_1_24)">
<g clip-path="url(#clip1_1_24)">
<path fill-rule="evenodd" clip-rule="evenodd" d="M7.74386 11.6886C7.74386 10.7733 8.48442 10.0289 9.39466 10.0289C10.3049 10.0289 11.0453 10.7733 11.0453 11.6886C11.0453 12.6036 10.3049 13.348 9.39466 13.348C8.48442 13.348 7.74386 12.6036 7.74386 11.6886ZM15.674 11.6886C15.674 12.6036 14.9335 13.348 14.0232 13.348C13.1128 13.348 12.3723 12.6036 12.3723 11.6886C12.3723 10.7733 13.1128 10.0289 14.0232 10.0289C14.9335 10.0289 15.674 10.7733 15.674 11.6886ZM24.9313 11.6886C24.9313 12.6036 24.1905 13.348 23.2805 13.348C22.3702 13.348 21.6299 12.6036 21.6299 11.6886C21.6299 10.7733 22.3702 10.0289 23.2805 10.0289C24.1905 10.0289 24.9313 10.7733 24.9313 11.6886ZM26.2583 11.6886C26.2583 10.7733 26.9991 10.0289 27.9091 10.0289C28.8194 10.0289 29.5597 10.7733 29.5597 11.6886C29.5597 12.6036 28.8194 13.348 27.9091 13.348C26.9991 13.348 26.2583 12.6036 26.2583 11.6886ZM30.8871 11.6886C30.8871 10.7733 31.6275 10.0289 32.5375 10.0289C33.4478 10.0289 34.1885 10.7733 34.1885 11.6886C34.1885 12.6036 33.4478 13.348 32.5375 13.348C31.6275 13.348 30.8871 12.6036 30.8871 11.6886ZM34.1885 19.675C34.1885 20.5899 33.4478 21.3344 32.5377 21.3344C31.6275 21.3344 30.8871 20.5899 30.8871 19.675C30.8871 18.76 31.6275 18.0156 32.5377 18.0156C33.4478 18.0156 34.1885 18.76 34.1885 19.675ZM7.36631 9.38139C6.45589 9.38139 5.71514 8.63716 5.71514 7.72236C5.71514 6.80701 6.45589 6.06241 7.36631 6.06241C8.27655 6.06241 9.01711 6.80701 9.01711 7.72236C9.01711 8.63716 8.27655 9.38139 7.36631 9.38139ZM4.69492 13.3481C3.78468 13.3481 3.04412 12.6035 3.04412 11.6887C3.04412 10.7733 3.78468 10.0287 4.69492 10.0287C5.60497 10.0287 6.34535 10.7733 6.34535 11.6887C6.34535 12.6035 5.60497 13.3481 4.69492 13.3481ZM3.04404 19.675C3.04404 18.76 3.7846 18.0156 4.69484 18.0156C5.60508 18.0156 6.34546 18.76 6.34546 19.675C6.34546 20.5899 5.60508 21.3344 4.69484 21.3344C3.7846 21.3344 3.04404 20.5899 3.04404 19.675ZM11.9951 9.38139C11.0843 9.38139 10.3436 8.63716 10.3436 7.72236C10.3436 6.80701 11.0843 6.06241 11.9951 6.06241C12.9053 6.06241 13.6459 6.80701 13.6459 7.72236C13.6459 8.63716 12.9053 9.38139 11.9951 9.38139ZM14.9723 7.72227C14.9723 6.80692 15.7132 6.0625 16.6238 6.0625C17.5341 6.0625 18.2744 6.80692 18.2744 7.72227C18.2744 8.63725 17.5341 9.3813 16.6238 9.3813C15.7132 9.3813 14.9723 8.63725 14.9723 7.72227ZM19.6007 7.72227C19.6007 6.80692 20.3417 6.0625 21.2523 6.0625C22.1625 6.0625 22.9033 6.80692 22.9033 7.72227C22.9033 8.63725 22.1625 9.3813 21.2523 9.3813C20.3417 9.3813 19.6007 8.63725 19.6007 7.72227ZM24.2299 7.72227C24.2299 6.80692 24.9706 6.0625 25.8811 6.0625C26.7913 6.0625 27.5317 6.80692 27.5317 7.72227C27.5317 8.63725 26.7913 9.3813 25.8811 9.3813C24.9706 9.3813 24.2299 8.63725 24.2299 7.72227ZM30.5096 9.38139C29.5988 9.38139 28.858 8.63716 28.858 7.72236C28.858 6.80701 29.5988 6.06241 30.5096 6.06241C31.4198 6.06241 32.1604 6.80701 32.1604 7.72236C32.1604 8.63716 31.4198 9.38139 30.5096 9.38139ZM11.0453 19.675C11.0453 20.5899 10.3049 21.3344 9.39483 21.3344C8.4844 21.3344 7.74384 20.5899 7.74384 19.675C7.74384 18.76 8.4844 18.0156 9.39483 18.0156C10.3049 18.0156 11.0453 18.76 11.0453 19.675ZM27.9092 21.3344C26.999 21.3344 26.2584 20.5898 26.2584 19.675C26.2584 18.7601 26.999 18.0155 27.9092 18.0155C28.8194 18.0155 29.5596 18.7601 29.5596 19.675C29.5596 20.5898 28.8194 21.3344 27.9092 21.3344ZM7.36631 17.3684C6.45589 17.3684 5.71514 16.6238 5.71514 15.7091C5.71514 14.7941 6.45589 14.0498 7.36631 14.0498C8.27655 14.0498 9.01711 14.7941 9.01711 15.7091C9.01711 16.6238 8.27655 17.3684 7.36631 17.3684ZM13.646 15.709C13.646 16.624 12.9054 17.3684 11.9952 17.3684C11.0844 17.3684 10.3434 16.624 10.3434 15.709C10.3434 14.794 11.0844 14.05 11.9952 14.05C12.9054 14.05 13.646 14.794 13.646 15.709ZM27.5316 15.709C27.5316 16.624 26.7913 17.3684 25.8812 17.3684C24.9706 17.3684 24.2299 16.624 24.2299 15.709C24.2299 14.794 24.9706 14.05 25.8812 14.05C26.7913 14.05 27.5316 14.794 27.5316 15.709ZM30.5096 17.3684C29.5988 17.3684 28.858 16.6238 28.858 15.7091C28.858 14.7941 29.5988 14.0498 30.5096 14.0498C31.4198 14.0498 32.1604 14.7941 32.1604 15.7091C32.1604 16.6238 31.4198 17.3684 30.5096 17.3684ZM11.0453 27.6617C11.0453 28.5767 10.3049 29.3211 9.39483 29.3211C8.4844 29.3211 7.74384 28.5767 7.74384 27.6617C7.74384 26.7467 8.4844 26.0023 9.39483 26.0023C10.3049 26.0023 11.0453 26.7467 11.0453 27.6617ZM14.0232 29.3211C13.1129 29.3211 12.3724 28.5765 12.3724 27.6618C12.3724 26.7468 13.1129 26.0022 14.0232 26.0022C14.9334 26.0022 15.674 26.7468 15.674 27.6618C15.674 28.5765 14.9334 29.3211 14.0232 29.3211ZM18.652 29.3211C17.7417 29.3211 17.0012 28.5765 17.0012 27.6618C17.0012 26.7468 17.7417 26.0022 18.652 26.0022C19.5622 26.0022 20.3024 26.7468 20.3024 27.6618C20.3024 28.5765 19.5622 29.3211 18.652 29.3211ZM23.2804 29.3211C22.3702 29.3211 21.63 28.5765 21.63 27.6618C21.63 26.7468 22.3702 26.0022 23.2804 26.0022C24.1906 26.0022 24.9312 26.7468 24.9312 27.6618C24.9312 28.5765 24.1906 29.3211 23.2804 29.3211ZM29.5597 27.6617C29.5597 28.5767 28.8193 29.3211 27.9093 29.3211C26.999 29.3211 26.2583 28.5767 26.2583 27.6617C26.2583 26.7467 26.999 26.0023 27.9093 26.0023C28.8193 26.0023 29.5597 26.7467 29.5597 27.6617ZM32.5376 26.0022C33.4479 26.0022 34.1884 26.7468 34.1884 27.6616C34.1884 28.5766 33.4479 29.3212 32.5376 29.3212C31.6274 29.3212 30.8872 28.5766 30.8872 27.6616C30.8872 26.7468 31.6274 26.0022 32.5376 26.0022ZM7.36631 25.3548C6.45589 25.3548 5.71514 24.6106 5.71514 23.6958C5.71514 22.7804 6.45589 22.0358 7.36631 22.0358C8.27655 22.0358 9.01711 22.7804 9.01711 23.6958C9.01711 24.6106 8.27655 25.3548 7.36631 25.3548ZM2.82876 17.3684C1.91871 17.3684 1.17833 16.6238 1.17833 15.7091C1.17833 14.7941 1.91871 14.0498 2.82876 14.0498C3.739 14.0498 4.47956 14.7941 4.47956 15.7091C4.47956 16.6238 3.739 17.3684 2.82876 17.3684ZM4.47963 23.6957C4.47963 24.6107 3.73907 25.3547 2.82884 25.3547C1.9186 25.3547 1.17822 24.6107 1.17822 23.6957C1.17822 22.7803 1.9186 22.0359 2.82884 22.0359C3.73907 22.0359 4.47963 22.7803 4.47963 23.6957ZM6.34542 27.6617C6.34542 28.5767 5.60504 29.3211 4.69499 29.3211C3.78457 29.3211 3.04401 28.5767 3.04401 27.6617C3.04401 26.7467 3.78457 26.0023 4.69499 26.0023C5.60504 26.0023 6.34542 26.7467 6.34542 27.6617ZM18.2744 23.6957C18.2744 24.6107 17.534 25.3547 16.624 25.3547C15.7132 25.3547 14.9723 24.6107 14.9723 23.6957C14.9723 22.7803 15.7132 22.0359 16.624 22.0359C17.534 22.0359 18.2744 22.7803 18.2744 23.6957ZM22.9032 23.6957C22.9032 24.6107 22.1625 25.3547 21.2524 25.3547C20.3416 25.3547 19.6007 24.6107 19.6007 23.6957C19.6007 22.7803 20.3416 22.0359 21.2524 22.0359C22.1625 22.0359 22.9032 22.7803 22.9032 23.6957ZM30.5096 25.3548C29.5988 25.3548 28.858 24.6106 28.858 23.6958C28.858 22.7804 29.5988 22.0358 30.5096 22.0358C31.4198 22.0358 32.1604 22.7804 32.1604 23.6958C32.1604 24.6106 31.4198 25.3548 30.5096 25.3548ZM35.0085 22.0359C35.9188 22.0359 36.659 22.7805 36.659 23.6956C36.659 24.6106 35.9188 25.3548 35.0085 25.3548C34.0983 25.3548 33.3577 24.6106 33.3577 23.6956C33.3577 22.7805 34.0983 22.0359 35.0085 22.0359ZM14.0232 5.0819C13.1129 5.0819 12.3724 4.33729 12.3724 3.4225C12.3724 2.50752 13.1129 1.76329 14.0232 1.76329C14.9334 1.76329 15.674 2.50752 15.674 3.4225C15.674 4.33729 14.9334 5.0819 14.0232 5.0819ZM33.3577 15.709C33.3577 14.794 34.0984 14.05 35.0085 14.05C35.9187 14.05 36.6591 14.794 36.6591 15.709C36.6591 16.624 35.9187 17.3684 35.0085 17.3684C34.0984 17.3684 33.3577 16.624 33.3577 15.709ZM14.0232 33.9889C14.9334 33.9889 15.674 34.7335 15.674 35.6483C15.674 36.5633 14.9334 37.3079 14.0232 37.3079C13.1129 37.3079 12.3724 36.5633 12.3724 35.6483C12.3724 34.7335 13.1129 33.9889 14.0232 33.9889ZM18.652 33.9889C19.5622 33.9889 20.3024 34.7335 20.3024 35.6483C20.3024 36.5633 19.5622 37.3079 18.652 37.3079C17.7417 37.3079 17.0012 36.5633 17.0012 35.6483C17.0012 34.7335 17.7417 33.9889 18.652 33.9889ZM23.2804 33.9889C24.1906 33.9889 24.9312 34.7335 24.9312 35.6483C24.9312 36.5633 24.1906 37.3079 23.2804 37.3079C22.3702 37.3079 21.63 36.5633 21.63 35.6483C21.63 34.7335 22.3702 33.9889 23.2804 33.9889ZM18.652 5.0819C17.7417 5.0819 17.0012 4.33729 17.0012 3.4225C17.0012 2.50752 17.7417 1.76329 18.652 1.76329C19.5622 1.76329 20.3024 2.50752 20.3024 3.4225C20.3024 4.33729 19.5622 5.0819 18.652 5.0819ZM23.2804 5.0819C22.3702 5.0819 21.63 4.33729 21.63 3.4225C21.63 2.50752 22.3702 1.76329 23.2804 1.76329C24.1906 1.76329 24.9312 2.50752 24.9312 3.4225C24.9312 4.33729 24.1906 5.0819 23.2804 5.0819ZM7.36631 30.0226C8.27655 30.0226 9.01711 30.7672 9.01711 31.682C9.01711 32.5969 8.27655 33.3415 7.36631 33.3415C6.45589 33.3415 5.71514 32.5969 5.71514 31.682C5.71514 30.7672 6.45589 30.0226 7.36631 30.0226ZM13.646 31.682C13.646 32.597 12.9054 33.3414 11.9952 33.3414C11.0844 33.3414 10.3434 32.597 10.3434 31.682C10.3434 30.7671 11.0844 30.0226 11.9952 30.0226C12.9054 30.0226 13.646 30.7671 13.646 31.682ZM18.2744 31.682C18.2744 32.597 17.534 33.3414 16.624 33.3414C15.7132 33.3414 14.9723 32.597 14.9723 31.682C14.9723 30.7671 15.7132 30.0226 16.624 30.0226C17.534 30.0226 18.2744 30.7671 18.2744 31.682ZM22.9032 31.682C22.9032 32.597 22.1625 33.3414 21.2524 33.3414C20.3416 33.3414 19.6007 32.597 19.6007 31.682C19.6007 30.7671 20.3416 30.0226 21.2524 30.0226C22.1625 30.0226 22.9032 30.7671 22.9032 31.682ZM25.8811 30.0226C26.7914 30.0226 27.5315 30.7672 27.5315 31.682C27.5315 32.5969 26.7914 33.3415 25.8811 33.3415C24.9705 33.3415 24.2299 32.5969 24.2299 31.682C24.2299 30.7672 24.9705 30.0226 25.8811 30.0226ZM30.5096 30.0226C31.4198 30.0226 32.1604 30.7672 32.1604 31.682C32.1604 32.5969 31.4198 33.3415 30.5096 33.3415C29.5988 33.3415 28.858 32.5969 28.858 31.682C28.858 30.7672 29.5988 30.0226 30.5096 30.0226Z" stroke="#EBCCC2" stroke-width="0.999863"/>
</g>
</g>
<defs>
<clipPath id="clip0_1_24">
<rect width="36.9965" height="37.9948" fill="white" transform="translate(0.663147 0.50174)"/>
</clipPath>
<clipPath id="clip1_1_24">
<rect width="36.9949" height="37.9948" fill="white" transform="translate(0.66394 0.50174)"/>
</clipPath>
</defs>
</svg>
